<svg width="128" height="23" viewBox="0 0 128 23" fill="none" xmlns="http://www.w3.org/2000/svg">
<rect x="0.371826" width="22.7907" height="22.7907" fill="#00B87C"/>
<path d="M19.4945 9.69691L13.611 9.69691L11.7998 4.10272L9.97796 9.69691L4.09442 9.68619L8.85269 13.1477L7.03083 18.7419L11.7891 15.2804L16.5474 18.7419L14.7362 13.1477L19.4945 9.69691Z" fill="#FDFEFE"/>
<path d="M15.1437 14.4119L14.7365 13.1473L11.8001 15.2799L15.1437 14.4119Z" fill="#4BBD97"/>
<rect x="26.5814" width="22.7907" height="22.7907" fill="#00B87C"/>
<path d="M45.704 9.69691L39.8205 9.69691L38.0093 4.10272L36.1875 9.69691L30.3039 9.68619L35.0622 13.1477L33.2403 18.7419L37.9986 15.2804L42.7569 18.7419L40.9457 13.1477L45.704 9.69691Z" fill="#FDFEFE"/>
<path d="M41.353 14.4119L40.9458 13.1473L38.0094 15.2799L41.353 14.4119Z" fill="#4BBD97"/>
<rect x="52.7906" width="22.7907" height="22.7907" fill="#00B87C"/>
<path d="M71.9133 9.69691L66.0298 9.69691L64.2186 4.10272L62.3968 9.69691L56.5132 9.68619L61.2715 13.1477L59.4496 18.7419L64.2079 15.2804L68.9662 18.7419L67.155 13.1477L71.9133 9.69691Z" fill="#FDFEFE"/>
<path d="M67.5623 14.4119L67.1551 13.1473L64.2187 15.2799L67.5623 14.4119Z" fill="#4BBD97"/>
<rect x="78.9999" width="22.7907" height="22.7907" fill="#00B87C"/>
<path d="M98.1223 9.69691L92.2387 9.69691L90.4276 4.10272L88.6057 9.69691L82.7222 9.68619L87.4805 13.1477L85.6586 18.7419L90.4169 15.2804L95.1752 18.7419L93.364 13.1477L98.1223 9.69691Z" fill="#FDFEFE"/>
<path d="M93.7714 14.4119L93.3641 13.1473L90.4277 15.2799L93.7714 14.4119Z" fill="#4BBD97"/>
<rect x="105.209" width="22.7907" height="22.7907" fill="#DDDDE5"/>
<rect x="105.209" width="11.3954" height="22.7907" fill="#00B87C"/>
<path d="M124.332 9.69691L118.448 9.69691L116.637 4.10272L114.815 9.69691L108.932 9.68619L113.69 13.1477L111.868 18.7419L116.627 15.2804L121.385 18.7419L119.574 13.1477L124.332 9.69691Z" fill="#FDFEFE"/>
<path d="M119.981 14.4119L119.574 13.1473L116.637 15.2799L119.981 14.4119Z" fill="#E7E7EE"/>
</svg>
