<svg width="191" height="48" viewBox="0 0 191 48" fill="none" xmlns="http://www.w3.org/2000/svg">
<path d="M50.2015 16.7761L69.5243 16.7761V20.3733L61.9162 20.3733V40.6511H57.746V20.3733H50.1697L50.2015 16.7761ZM68.6967 23.3656H72.262V26.7081H72.3257C72.453 26.2306 72.6758 25.7849 72.9942 25.3393C73.3125 24.8936 73.6945 24.4798 74.172 24.1296C74.6177 23.7476 75.127 23.4611 75.7 23.2383C76.2412 23.0154 76.8142 22.8881 77.3872 22.8881C77.8328 22.8881 78.1512 22.9199 78.3103 22.9199C78.4695 22.9518 78.6605 22.9836 78.8197 22.9836V26.6444C78.565 26.5808 78.2785 26.5489 77.992 26.5171C77.7055 26.4853 77.4508 26.4534 77.1643 26.4534C76.5277 26.4534 75.9228 26.5808 75.3498 26.8354C74.7768 27.0901 74.2993 27.4721 73.8537 27.9496C73.4398 28.4589 73.0897 29.0638 72.835 29.7959C72.5803 30.5281 72.453 31.3876 72.453 32.3426V40.5556H68.633L68.6967 23.3656ZM96.328 40.6511L92.5716 40.6511V38.2318H92.508C92.0305 39.1231 91.3301 39.7916 90.407 40.3328C89.4838 40.8739 88.5288 41.1286 87.5738 41.1286C85.3137 41.1286 83.6583 40.5874 82.6397 39.4414C81.621 38.3272 81.1117 36.6083 81.1117 34.3481V23.3656H84.9316V33.9661C84.9316 35.4941 85.2182 36.5764 85.823 37.1812C86.396 37.8179 87.2236 38.1362 88.2741 38.1362C89.07 38.1362 89.7385 38.0089 90.2796 37.7543C90.8208 37.4996 91.2665 37.1813 91.5848 36.7674C91.935 36.3536 92.1578 35.8442 92.317 35.2713C92.4761 34.6983 92.5398 34.0616 92.5398 33.3931V23.3656H96.3598V40.6511H96.328ZM102.822 35.1121C102.949 36.2262 103.363 36.9903 104.095 37.4678C104.827 37.9134 105.719 38.1362 106.737 38.1362C107.088 38.1362 107.501 38.1044 107.947 38.0408C108.393 37.9771 108.838 37.8816 109.22 37.7224C109.634 37.5633 109.953 37.3404 110.207 37.0221C110.462 36.7037 110.589 36.3218 110.557 35.8443C110.526 35.3668 110.366 34.9529 110.016 34.6346C109.666 34.3163 109.252 34.0934 108.743 33.8706C108.234 33.6796 107.629 33.5204 106.96 33.3931C106.292 33.2658 105.623 33.1066 104.923 32.9474C104.223 32.7883 103.522 32.5973 102.854 32.3744C102.185 32.1516 101.612 31.8651 101.071 31.4513C100.562 31.0693 100.116 30.5918 99.8296 29.9869C99.5113 29.3821 99.3521 28.6818 99.3521 27.7904C99.3521 26.8354 99.575 26.0714 100.052 25.4348C100.498 24.7981 101.103 24.2888 101.803 23.9068C102.504 23.5248 103.299 23.2383 104.159 23.0791C105.018 22.9199 105.846 22.8563 106.61 22.8563C107.501 22.8563 108.361 22.9518 109.157 23.1428C109.953 23.3338 110.717 23.6203 111.353 24.0659C112.022 24.4798 112.563 25.0528 112.977 25.7213C113.422 26.3898 113.677 27.2174 113.804 28.1724H109.825C109.634 27.2493 109.22 26.6444 108.584 26.3261C107.915 26.0078 107.183 25.8486 106.324 25.8486C106.069 25.8486 105.719 25.8804 105.369 25.9123C104.987 25.9759 104.668 26.0396 104.318 26.1669C104 26.2943 103.713 26.4853 103.49 26.7081C103.268 26.9309 103.14 27.2493 103.14 27.6313C103.14 28.1088 103.299 28.4589 103.618 28.7454C103.936 29.0319 104.35 29.2548 104.891 29.4776C105.4 29.6686 106.005 29.8278 106.674 29.9551C107.342 30.0824 108.043 30.2416 108.743 30.4008C109.443 30.5599 110.112 30.7509 110.78 30.9738C111.449 31.1966 112.054 31.4831 112.563 31.8969C113.072 32.2789 113.518 32.7564 113.836 33.3294C114.155 33.9024 114.314 34.6346 114.314 35.4623C114.314 36.4809 114.091 37.3404 113.613 38.0726C113.136 38.7729 112.531 39.3778 111.799 39.8234C111.067 40.2691 110.207 40.5874 109.316 40.8102C108.393 41.0012 107.501 41.1286 106.61 41.1286C105.528 41.1286 104.509 41.0012 103.586 40.7466C102.663 40.4919 101.835 40.1099 101.167 39.6324C100.498 39.1231 99.957 38.5183 99.575 37.7543C99.193 37.0221 98.9701 36.1308 98.9383 35.0803H102.79V35.1121H102.822ZM115.396 23.3656H118.293V18.145H122.113V23.3338H125.551V26.1669H122.113V35.3986C122.113 35.8124 122.145 36.1308 122.177 36.4491C122.208 36.7356 122.304 36.9902 122.399 37.1812C122.527 37.3722 122.718 37.5314 122.941 37.6269C123.195 37.7224 123.514 37.7861 123.959 37.7861C124.214 37.7861 124.5 37.7861 124.755 37.7543C125.01 37.7224 125.296 37.6906 125.551 37.6269V40.5874C125.137 40.6511 124.723 40.6829 124.309 40.7147C123.896 40.7784 123.514 40.7784 123.068 40.7784C122.049 40.7784 121.253 40.6829 120.649 40.4919C120.044 40.3009 119.566 40.0144 119.216 39.6643C118.866 39.2823 118.643 38.8366 118.516 38.2954C118.388 37.7542 118.325 37.0857 118.293 36.3854V26.1988H115.396V23.3019V23.3656ZM128.225 23.3656H131.822V25.7213H131.886C132.427 24.7026 133.159 24.0023 134.114 23.5566C135.069 23.1109 136.088 22.8881 137.234 22.8881C138.603 22.8881 139.78 23.1109 140.799 23.6203C141.818 24.0978 142.645 24.7344 143.314 25.5939C143.982 26.4216 144.492 27.4084 144.81 28.5226C145.128 29.6368 145.319 30.8464 145.319 32.0879C145.319 33.2658 145.16 34.3799 144.874 35.4623C144.555 36.5446 144.11 37.5314 143.505 38.3591C142.9 39.1867 142.136 39.8552 141.181 40.3646C140.226 40.8739 139.144 41.1286 137.87 41.1286C137.329 41.1286 136.756 41.0649 136.215 40.9694C135.674 40.8739 135.133 40.7148 134.623 40.4919C134.114 40.2691 133.637 39.9826 133.223 39.6324C132.777 39.2822 132.427 38.8684 132.14 38.4228H132.077V47.0496H128.257V23.3656H128.225ZM141.563 32.0243C141.563 31.2603 141.468 30.4963 141.245 29.7641C141.054 29.0319 140.735 28.3953 140.322 27.8223C139.908 27.2493 139.398 26.8036 138.825 26.4534C138.221 26.1033 137.52 25.9441 136.756 25.9441C135.165 25.9441 133.955 26.4853 133.127 27.5994C132.331 28.7136 131.918 30.2098 131.918 32.0561C131.918 32.9474 132.013 33.7433 132.236 34.4754C132.459 35.2076 132.745 35.8443 133.191 36.3854C133.605 36.9266 134.114 37.3404 134.719 37.6587C135.324 37.9771 135.992 38.1362 136.788 38.1362C137.679 38.1362 138.38 37.9453 138.985 37.5951C139.589 37.2449 140.067 36.7674 140.481 36.2262C140.863 35.6533 141.149 35.0166 141.308 34.2844C141.468 33.5204 141.563 32.7883 141.563 32.0243ZM148.28 16.7761L152.1 16.7761V20.3733L148.28 20.3733V16.7761ZM148.28 23.3656H152.1V40.6511H148.28V23.3656ZM155.506 16.7761H159.326V40.6511H155.506V16.7761ZM170.977 41.1286C169.608 41.1286 168.367 40.9057 167.284 40.4282C166.202 39.9507 165.311 39.3459 164.547 38.5501C163.815 37.7543 163.242 36.7674 162.86 35.6533C162.478 34.5391 162.255 33.2976 162.255 31.9924C162.255 30.6873 162.446 29.4776 162.86 28.3634C163.242 27.2493 163.815 26.2943 164.547 25.4666C165.279 24.6708 166.202 24.0341 167.284 23.5884C168.367 23.1428 169.608 22.8881 170.977 22.8881C172.346 22.8881 173.587 23.1109 174.67 23.5884C175.752 24.0341 176.643 24.6708 177.407 25.4666C178.139 26.2624 178.712 27.2493 179.094 28.3634C179.476 29.4776 179.699 30.6873 179.699 31.9924C179.699 33.3294 179.508 34.5391 179.094 35.6533C178.681 36.7674 178.139 37.7224 177.407 38.5501C176.675 39.3459 175.752 39.9826 174.67 40.4282C173.587 40.8739 172.378 41.1286 170.977 41.1286ZM170.977 38.1044C171.805 38.1044 172.569 37.9134 173.174 37.5633C173.81 37.2131 174.288 36.7356 174.702 36.1626C175.115 35.5896 175.402 34.9211 175.593 34.2208C175.784 33.4886 175.879 32.7564 175.879 31.9924C175.879 31.2603 175.784 30.5281 175.593 29.7959C175.402 29.0638 175.115 28.4271 174.702 27.8541C174.288 27.2811 173.778 26.8354 173.174 26.4853C172.537 26.1351 171.805 25.9441 170.977 25.9441C170.149 25.9441 169.385 26.1351 168.781 26.4853C168.144 26.8354 167.666 27.3129 167.253 27.8541C166.839 28.4271 166.552 29.0638 166.361 29.7959C166.17 30.5281 166.075 31.2603 166.075 31.9924C166.075 32.7564 166.17 33.4886 166.361 34.2208C166.552 34.9529 166.839 35.5896 167.253 36.1626C167.666 36.7356 168.176 37.2131 168.781 37.5633C169.417 37.9453 170.149 38.1044 170.977 38.1044ZM180.845 23.3656H183.742V18.145H187.562V23.3338H191V26.1669L187.562 26.1669V35.3986C187.562 35.8124 187.594 36.1308 187.626 36.4491C187.658 36.7356 187.753 36.9902 187.849 37.1812C187.976 37.3722 188.167 37.5314 188.39 37.6269C188.644 37.7224 188.963 37.7861 189.408 37.7861C189.663 37.7861 189.95 37.7861 190.204 37.7543C190.459 37.7224 190.745 37.6906 191 37.6269V40.5874C190.586 40.6511 190.172 40.6829 189.759 40.7147C189.345 40.7784 188.963 40.7784 188.517 40.7784C187.499 40.7784 186.703 40.6829 186.098 40.4919C185.493 40.3009 185.015 40.0144 184.665 39.6643C184.315 39.2823 184.092 38.8366 183.965 38.2954C183.838 37.7542 183.774 37.0857 183.742 36.3854V26.1988H180.845V23.3019V23.3656Z" fill="#01022E"/>
<path d="M45.7444 16.7765L28.268 16.7765L22.8881 0.159546L17.4765 16.7765L0 16.7447L14.134 27.0268L8.72232 43.6438L22.8563 33.3617L36.9903 43.6438L31.6104 27.0268L45.7444 16.7765Z" fill="#00B67A"/>
<path d="M32.8202 30.7829L31.6105 27.0266L22.8882 33.3614L32.8202 30.7829Z" fill="#005128"/>
</svg>
